<svg width="177" height="44" viewBox="0 0 177 44" fill="none" xmlns="http://www.w3.org/2000/svg">
<path d="M17.6876 25.2705C17.9283 25.1902 18.1933 25.2316 18.3985 25.3808L26.2852 31.1162C26.5444 31.3047 26.8924 31.3173 27.1641 31.1474L32.3839 27.8847C32.7316 27.6675 33.1878 27.7545 33.4317 28.084L38.3594 34.7471C38.7428 35.2656 38.3725 35.9999 37.7276 36H6.27253C5.62754 36 5.25723 35.2657 5.64069 34.7471L10.8526 27.6992C10.9486 27.5695 11.0824 27.4729 11.2354 27.4219L17.6876 25.2705ZM21.088 7.39451C21.4752 6.88532 22.2345 6.8659 22.6475 7.35448L34.7628 21.6924C35.1531 22.1544 35.0468 22.8548 34.5372 23.1806L26.9991 28L18.4278 20.7529L11.338 23.2607C10.4021 23.5917 9.60809 22.5044 10.2081 21.7139L21.088 7.39451ZM13.8243 20.2597L17.7608 18.8672C18.4309 18.6301 19.1771 18.7667 19.7198 19.2256L27.1641 25.5205L32.4981 22.1103L21.9259 9.59862L13.8243 20.2597Z" fill="currentColor"></path>
<path d="M147.308 16.959C150.499 16.959 152.948 19.8149 152.948 23.2227C152.948 26.6307 150.5 29.4873 147.308 29.4873C145.652 29.4872 144.38 28.6469 143.828 27.8789V34.2393H140.54V17.2227H143.828V18.5674C144.38 17.7994 145.652 16.9591 147.308 16.959ZM104.9 11.8955C106.988 11.8956 108.812 12.6152 110.276 14.2471L107.972 16.623C107.156 15.6392 106.1 15.1592 104.924 15.1592C103.748 15.1592 102.645 15.6631 102.645 16.6709C102.645 17.7029 103.484 18.1596 105.284 18.8076L106.652 19.3115C109.148 20.2235 110.708 21.8072 110.708 24.375C110.684 27.4229 108.26 29.5106 104.732 29.5107C102.02 29.5107 99.7396 28.3349 98.5156 26.4629L101.18 24.2314C102.02 25.5034 103.484 26.247 104.876 26.2471C106.244 26.2471 107.156 25.5748 107.156 24.5908C107.156 23.631 106.46 22.9587 104.78 22.3828L103.34 21.8789C100.604 20.9189 99.1396 19.3348 99.1396 17.0068C99.1398 13.791 101.588 11.8955 104.9 11.8955ZM86.6201 16.959C89.7641 16.959 92.5244 18.9753 92.5244 22.8633C92.5244 23.1513 92.5246 23.4873 92.4766 23.9912H83.5C83.692 25.5992 85.1084 26.4873 86.6924 26.4873C88.18 26.4872 89.26 25.7914 89.7881 24.9756L92.2363 26.7988C91.1323 28.4068 89.188 29.4873 86.668 29.4873C83.092 29.4872 80.3086 27.0146 80.3086 23.2227C80.3088 19.6709 82.9723 16.959 86.6201 16.959ZM118.275 16.959C120.771 16.9591 122.931 18.3512 123.963 20.415L121.107 21.9512C120.627 20.8473 119.595 20.0314 118.275 20.0312C116.548 20.0312 115.227 21.3749 115.227 23.2227C115.227 25.0707 116.547 26.415 118.275 26.415C119.595 26.4149 120.627 25.599 121.107 24.4951L123.963 26.0312C122.931 28.0951 120.771 29.4872 118.275 29.4873C114.723 29.4873 111.915 26.8467 111.915 23.2227C111.915 19.5989 114.724 16.959 118.275 16.959ZM159.127 17.2227H162.511V20.1035H159.127V24.375C159.127 25.839 159.751 26.415 161.167 26.415C161.695 26.415 162.127 26.3432 162.511 26.1992V29.1035C161.983 29.2715 161.335 29.3672 160.423 29.3672C157.879 29.3672 155.839 27.9512 155.839 25.0234V20.1035H153.415V17.2227H155.839V13.8867H159.127V17.2227ZM53.6641 12.1836C57.12 12.1836 59.6395 14.6791 59.6396 17.9189C59.6396 21.1589 57.12 23.6552 53.6641 23.6553H51.4805V29.2227H48V12.1836H53.6641ZM64.5117 29.2227H61.2236V17.2227H64.5117V29.2227ZM73.9092 16.959C76.813 16.9591 78.541 19.0715 78.541 22.1914V29.2227H75.2529V22.7432C75.2529 21.0152 74.5086 19.959 73.1406 19.959C71.6288 19.9591 70.4766 21.0633 70.4766 23.3672V29.2227H67.1885V17.2227H70.4766V18.5908C71.1006 17.6308 72.3492 16.959 73.9092 16.959ZM131.85 17.0791C132.186 17.0791 132.546 17.1027 132.954 17.2227V20.5596C132.45 20.3916 131.994 20.2949 131.466 20.2949C129.906 20.2949 128.874 21.5193 128.874 23.4873V29.2227H125.586V17.2227H128.874V19.1436C129.282 17.9676 130.506 17.0792 131.85 17.0791ZM137.862 29.2227H134.574V17.2227H137.862V29.2227ZM146.588 19.959C144.788 19.959 143.564 21.3509 143.563 23.2227C143.563 25.0947 144.788 26.4873 146.588 26.4873C148.388 26.4873 149.612 25.0947 149.612 23.2227C149.612 21.3509 148.388 19.959 146.588 19.959ZM169.993 9.76074C170.876 9.76079 171.697 9.9237 172.455 10.25C173.213 10.5764 173.881 11.0326 174.457 11.6182C175.043 12.1942 175.499 12.8617 175.825 13.6201C176.151 14.3783 176.314 15.1991 176.314 16.082C176.314 16.9556 176.152 17.7769 175.825 18.5449C175.499 19.3032 175.043 19.975 174.457 20.5605C173.881 21.1365 173.208 21.5877 172.44 21.9141C171.682 22.2404 170.867 22.4042 169.993 22.4043C169.12 22.4043 168.298 22.2405 167.53 21.9141C166.772 21.5877 166.1 21.1365 165.515 20.5605C164.939 19.975 164.488 19.3032 164.161 18.5449C163.835 17.7769 163.671 16.9556 163.671 16.082C163.671 15.2086 163.835 14.393 164.161 13.6348C164.488 12.8668 164.939 12.1942 165.515 11.6182C166.1 11.0327 166.772 10.5764 167.53 10.25C168.298 9.92362 169.12 9.76074 169.993 9.76074ZM86.5244 19.6709C85.3005 19.6709 83.9323 20.295 83.6201 21.7588H89.2363C88.9482 20.3431 87.7482 19.671 86.5244 19.6709ZM169.993 11.1865C169.312 11.1865 168.672 11.3109 168.077 11.5605C167.492 11.8101 166.974 12.1612 166.522 12.6123C166.071 13.0635 165.72 13.5865 165.471 14.1816C165.221 14.7671 165.097 15.4006 165.097 16.082C165.097 16.7634 165.221 17.402 165.471 17.9971C165.72 18.5827 166.071 19.1015 166.522 19.5527C166.974 20.0038 167.492 20.3539 168.077 20.6035C168.672 20.8531 169.312 20.9785 169.993 20.9785C170.675 20.9785 171.308 20.8531 171.894 20.6035C172.489 20.3539 173.012 20.0038 173.463 19.5527C173.914 19.1015 174.265 18.5827 174.515 17.9971C174.764 17.402 174.889 16.7634 174.889 16.082C174.889 15.4006 174.764 14.7671 174.515 14.1816C174.265 13.5865 173.914 13.0635 173.463 12.6123C173.012 12.1611 172.489 11.8101 171.894 11.5605C171.308 11.311 170.675 11.1866 169.993 11.1865ZM51.4805 20.3916H53.6162C55.2001 20.3915 56.2559 19.3109 56.2559 17.9189C56.2558 16.5271 55.2 15.4474 53.6162 15.4473H51.4805V20.3916ZM169.878 13.2314C170.406 13.2315 170.838 13.2932 171.174 13.418C171.519 13.5332 171.773 13.7163 171.937 13.9658C172.1 14.2154 172.182 14.5271 172.182 14.9014C172.182 15.2469 172.09 15.5494 171.908 15.8086C171.726 16.0581 171.481 16.2646 171.174 16.4277L172.815 18.9336H171.217L169.964 16.8027H169.445V18.9336H168.034V13.2314H169.878ZM169.445 15.751H169.849C170.127 15.751 170.348 15.6932 170.511 15.5781C170.674 15.4533 170.756 15.247 170.756 14.959C170.756 14.7383 170.684 14.5703 170.54 14.4551C170.396 14.3399 170.165 14.2822 169.849 14.2822H169.445V15.751ZM62.8555 11.0791C64.0314 11.0791 64.9677 12.0151 64.9678 13.167C64.9678 14.319 64.0315 15.2549 62.8555 15.2549C61.7275 15.2548 60.7676 14.3189 60.7676 13.167C60.7677 12.0151 61.7276 11.0792 62.8555 11.0791ZM136.207 11.0791C137.383 11.0793 138.318 12.0152 138.318 13.167C138.318 14.3188 137.383 15.2546 136.207 15.2549C135.079 15.2549 134.118 14.319 134.118 13.167C134.118 12.0151 135.079 11.0791 136.207 11.0791Z" fill="currentColor"></path>
</svg>